HIERARCHY
ROOT Hips
{
	OFFSET 0.000000 95.729000 0.000000
	CHANNELS 6 Xposition Yposition Zposition Yrotation Xrotation Zrotation
	JOINT RightUpLeg
	{
		OFFSET -9.625000 -1.639000 0.000000
		CHANNELS 3 Yrotation Xrotation Zrotation
		JOINT RightLeg
		{
			OFFSET 0.000000 -41.481000 0.000000
			CHANNELS 3 Yrotation Xrotation Zrotation
			JOINT RightFoot
			{
				OFFSET 0.000000 -43.120000 0.000000
				CHANNELS 3 Yrotation Xrotation Zrotation
				End Site
				{
					OFFSET 0.000000 -7.850000 17.850000
				}
			}
		}
	}
	JOINT LeftUpLeg
	{
		OFFSET 9.625000 -1.639000 0.000000
		CHANNELS 3 Yrotation Xrotation Zrotation
		JOINT LeftLeg
		{
			OFFSET 0.000000 -43.120000 0.000000
			CHANNELS 3 Yrotation Xrotation Zrotation
			JOINT LeftFoot
			{
				OFFSET 0.000000 -43.120000 0.000000
				CHANNELS 3 Yrotation Xrotation Zrotation
				End Site
				{
					OFFSET 0.000000 -7.850000 17.850000
				}
			}
		}
	}
	JOINT Spine
	{
		OFFSET 0.000000 16.395000 0.000000
		CHANNELS 3 Yrotation Xrotation Zrotation
		JOINT Spine1
		{
			OFFSET 0.000000 10.023000 0.000000
			CHANNELS 3 Yrotation Xrotation Zrotation
			JOINT Spine2
			{
				OFFSET 0.000000 10.437000 0.000000
				CHANNELS 3 Yrotation Xrotation Zrotation
				JOINT Spine3
				{
					OFFSET 0.000000 10.023000 0.000000
					CHANNELS 3 Yrotation Xrotation Zrotation
					JOINT Neck
					{
						OFFSET 0.000000 10.713000 0.000000
						CHANNELS 3 Yrotation Xrotation Zrotation
						JOINT Head
						{
							OFFSET 0.000000 9.720000 0.000000
							CHANNELS 3 Yrotation Xrotation Zrotation
							End Site
							{
								OFFSET 0.000000 16.450000 0.000000
							}
						}
					}
					JOINT RightShoulder
					{
						OFFSET -3.275000 7.142000 0.000000
						CHANNELS 3 Yrotation Xrotation Zrotation
						JOINT RightArm
						{
							OFFSET -13.100000 0.000000 0.000000
							CHANNELS 3 Yrotation Xrotation Zrotation
							JOINT RightForeArm
							{
								OFFSET -27.250000 0.000000 0.000000
								CHANNELS 3 Yrotation Xrotation Zrotation
								JOINT RightHand
								{
									OFFSET -26.750000 0.000000 0.000000
									CHANNELS 3 Yrotation Xrotation Zrotation
									End Site
									{
										OFFSET -3.479000 0.532000 0.778000
									}
								}
							}
						}
					}
					JOINT LeftShoulder
					{
						OFFSET 3.275000 7.142000 0.000000
						CHANNELS 3 Yrotation Xrotation Zrotation
						JOINT LeftArm
						{
							OFFSET 13.100000 0.000000 0.000000
							CHANNELS 3 Yrotation Xrotation Zrotation
							JOINT LeftForeArm
							{
								OFFSET 27.250000 0.000000 0.000000
								CHANNELS 3 Yrotation Xrotation Zrotation
								JOINT LeftHand
								{
									OFFSET 26.750000 0.000000 0.000000
									CHANNELS 3 Yrotation Xrotation Zrotation
									End Site
									{
										OFFSET 3.479000 0.532000 0.778000
									}
								}
							}
						}
					}
				}
			}
		}
	}
}
MOTION
Frames: 26
Frame Time: 0.010000
29.13 94.56 27.9 -124.66 5.97 2.28 7.79 -16.66 -4.59 -0.0 29.01 -0.0 -23.56 -17.38 6.76 7.52 -23.14 4.07 -0.0 21.01 0.0 -1.0 -14.98 -2.84 5.32 -2.15 -2.44 1.34 -0.47 -0.59 2.23 -0.7 -0.99 -0.87 -0.1 0.48 -0.88 -0.09 0.48 -16.13 0.7 8.78 22.58 -7.1 -13.91 18.13 -55.91 22.8 3.86 32.12 -13.74 -17.4 13.67 -66.4 5.89 -1.62 -5.0 -16.05 3.1 -65.26 -11.36 21.34 -4.96 9.2 32.43 26.43
28.87 94.59 28.1 -124.61 6.02 2.28 7.44 -16.53 -4.78 -0.0 28.8 -0.0 -23.32 -17.32 6.86 7.42 -23.15 3.87 0.0 21.01 0.0 -1.12 -14.54 -2.67 5.22 -2.12 -2.45 1.31 -0.47 -0.59 2.19 -0.7 -0.99 -0.88 -0.09 0.48 -0.89 -0.09 0.49 -16.18 0.74 8.81 21.87 -8.62 -12.71 20.21 -54.79 22.33 3.87 32.37 -13.94 -17.62 13.69 -66.49 5.98 -1.63 -5.07 -15.94 3.21 -65.44 -11.51 21.57 -4.89 9.13 32.42 26.46
28.58 94.61 28.32 -124.55 6.03 2.34 7.08 -16.36 -5.05 -0.0 28.6 -0.0 -23.05 -17.26 6.97 7.35 -23.06 3.6 0.0 20.93 0.0 -1.17 -14.03 -2.48 5.13 -2.07 -2.5 1.29 -0.45 -0.61 2.15 -0.68 -1.01 -0.88 -0.09 0.48 -0.89 -0.09 0.49 -16.21 0.76 8.81 21.22 -10.23 -11.44 22.29 -53.48 21.76 3.75 32.76 -14.14 -18.0 13.58 -66.62 6.07 -1.67 -5.11 -15.99 3.29 -65.53 -11.64 21.73 -4.88 9.09 32.41 26.5
28.22 94.63 28.63 -124.42 6.08 2.41 6.5 -16.22 -5.39 -0.0 28.41 -0.0 -22.77 -17.18 7.05 7.22 -23.03 3.24 0.0 20.86 -0.0 -1.25 -13.2 -2.24 5.0 -2.06 -2.56 1.26 -0.45 -0.62 2.1 -0.68 -1.04 -0.88 -0.1 0.49 -0.88 -0.09 0.49 -16.15 0.72 8.86 21.19 -11.33 -10.65 23.58 -52.76 21.79 3.62 33.36 -14.41 -18.16 13.51 -66.51 6.13 -1.66 -5.14 -16.06 3.34 -65.64 -11.84 21.91 -4.83 9.19 32.29 26.53
27.91 94.64 28.89 -124.27 6.14 2.44 6.24 -16.13 -5.67 -0.0 28.27 -0.0 -22.71 -17.13 7.2 7.03 -23.08 2.97 0.0 20.85 0.0 -1.44 -12.54 -2.02 4.93 -2.07 -2.59 1.24 -0.46 -0.63 2.07 -0.69 -1.05 -0.88 -0.09 0.48 -0.89 -0.09 0.49 -16.23 0.75 8.81 21.13 -12.14 -9.98 24.64 -52.03 21.5 3.91 33.78 -14.27 -18.54 13.48 -66.51 6.15 -1.63 -5.16 -16.14 3.31 -65.68 -12.11 22.08 -4.84 9.2 32.4 26.65
27.44 94.64 29.26 -124.03 6.23 2.5 5.7 -16.02 -6.08 -0.0 28.13 -0.0 -22.42 -17.13 7.37 6.81 -23.16 2.56 -0.0 20.9 0.0 -1.6 -11.55 -1.72 4.91 -2.08 -2.63 1.23 -0.46 -0.64 2.06 -0.69 -1.07 -0.89 -0.09 0.46 -0.9 -0.08 0.47 -16.42 0.87 8.44 21.1 -12.68 -9.6 26.44 -52.06 21.68 2.93 34.37 -15.28 -19.29 13.41 -66.56 6.16 -1.67 -5.14 -16.44 3.27 -65.77 -12.39 22.17 -4.77 9.33 32.44 26.81
27.07 94.63 29.56 -123.82 6.3 2.56 5.27 -15.96 -6.42 0.0 28.08 -0.0 -22.19 -17.17 7.53 6.65 -23.23 2.23 0.0 20.97 0.0 -1.56 -10.73 -1.53 4.9 -2.1 -2.65 1.23 -0.46 -0.64 2.06 -0.7 -1.08 -0.89 -0.09 0.46 -0.9 -0.08 0.46 -16.47 0.87 8.32 21.89 -13.31 -9.22 27.11 -51.46 21.53 2.33 34.67 -15.93 -19.96 13.39 -66.62 6.17 -1.67 -5.14 -16.69 3.22 -65.82 -12.7 22.16 -4.74 9.49 32.46 26.97
26.48 94.59 30.02 -123.44 6.36 2.67 4.63 -15.84 -6.97 -0.0 28.06 -0.0 -21.86 -17.26 7.77 6.34 -23.31 1.69 0.0 21.09 -0.0 -1.53 -9.55 -1.3 4.68 -2.13 -2.7 1.18 -0.47 -0.66 1.96 -0.72 -1.1 -0.88 -0.08 0.45 -0.89 -0.07 0.46 -16.21 0.98 8.24 22.97 -13.6 -8.97 27.43 -50.96 21.19 4.94 35.65 -14.21 -20.16 13.58 -66.17 6.55 -1.62 -5.13 -17.12 3.05 -65.84 -13.19 22.18 -4.73 9.78 32.55 27.27
26.0 94.55 30.43 -123.06 6.3 2.8 4.15 -15.7 -7.45 -0.0 28.17 0.0 -21.68 -17.38 7.96 6.1 -23.33 1.21 0.0 21.28 0.0 -1.68 -8.7 -1.11 4.87 -2.05 -2.8 1.22 -0.45 -0.68 2.04 -0.68 -1.14 -0.9 -0.08 0.46 -0.91 -0.07 0.46 -16.59 1.08 8.24 23.38 -13.76 -8.89 29.52 -50.88 21.0 3.53 36.39 -15.59 -20.59 13.82 -65.73 6.02 -1.67 -5.09 -17.33 2.86 -65.85 -13.54 22.19 -4.7 10.08 32.6 27.51
25.26 94.56 31.02 -122.4 6.05 2.99 3.59 -15.01 -8.15 -0.0 27.8 -0.0 -21.66 -17.26 8.24 6.07 -22.99 0.41 0.0 21.35 0.0 -2.07 -8.28 -0.62 5.29 -1.92 -2.96 1.33 -0.42 -0.72 2.22 -0.61 -1.2 -0.95 -0.07 0.46 -0.96 -0.07 0.46 -17.52 1.37 8.28 23.79 -14.05 -8.58 31.03 -50.3 20.6 2.53 37.07 -16.6 -20.58 14.11 -65.32 5.91 -1.74 -4.94 -18.47 2.63 -66.01 -13.89 22.06 -4.63 10.5 32.88 27.51
24.64 94.41 31.51 -121.75 5.87 3.14 3.34 -14.8 -8.74 0.0 28.27 0.0 -21.96 -17.48 8.69 6.12 -23.13 -0.22 -0.0 21.98 -0.0 -2.3 -7.26 -0.67 5.06 -1.83 -3.02 1.27 -0.4 -0.74 2.12 -0.59 -1.23 -0.96 -0.07 0.46 -0.96 -0.06 0.46 -17.53 1.56 8.27 25.06 -14.23 -8.39 32.05 -49.94 20.3 1.47 37.44 -17.55 -20.11 14.37 -64.87 5.89 -1.75 -4.91 -18.54 2.24 -66.05 -14.15 21.96 -4.64 10.81 32.86 28.23
23.74 94.31 32.21 -120.64 5.76 3.38 2.86 -14.38 -9.52 -0.0 28.4 -0.0 -22.22 -17.41 8.41 6.53 -23.08 -1.25 0.0 22.39 0.0 -2.63 -6.64 -0.54 5.64 -1.92 -3.32 1.42 -0.42 -0.81 2.36 -0.6 -1.35 -1.01 -0.05 0.47 -1.02 -0.04 0.47 -18.53 2.3 8.29 25.26 -14.17 -7.85 33.37 -49.72 19.9 2.92 39.02 -16.63 -23.49 14.1 -64.97 5.78 -1.78 -4.56 -20.05 1.87 -66.29 -14.33 21.95 -4.66 11.28 33.26 28.29
22.99 94.24 32.76 -119.6 5.66 3.61 2.32 -13.91 -10.19 -0.0 28.32 0.0 -22.48 -17.28 8.34 6.96 -22.92 -2.13 -0.0 22.6 -0.0 -2.91 -6.34 -0.55 5.02 -1.86 -3.4 1.26 -0.41 -0.83 2.11 -0.6 -1.39 -0.98 -0.04 0.46 -0.99 -0.03 0.46 -17.98 2.4 8.15 27.21 -14.18 -7.81 34.34 -49.57 19.5 2.64 39.63 -16.83 -22.81 14.4 -64.19 6.89 -2.01 -4.57 -20.94 1.47 -66.44 -14.33 22.04 -4.68 11.57 33.15 28.93
21.91 94.22 33.51 -118.0 5.52 4.01 1.79 -12.95 -11.13 -0.0 27.82 0.0 -23.3 -16.88 8.16 7.18 -22.51 -3.44 -0.0 22.73 -0.0 -3.99 -6.53 0.2 6.11 -2.06 -4.0 1.54 -0.44 -0.98 2.56 -0.62 -1.63 -1.1 -0.02 0.47 -1.11 -0.01 0.47 -20.11 3.2 8.23 26.69 -13.73 -7.09 35.48 -49.67 18.93 2.08 40.12 -17.14 -23.37 14.41 -63.77 5.39 -1.96 -3.97 -22.31 1.07 -66.61 -14.16 22.11 -4.66 11.9 33.37 29.25
21.12 94.16 34.06 -117.55 5.52 4.1 2.16 -12.38 -11.69 -0.0 27.49 -0.0 -23.96 -16.51 7.97 8.1 -22.41 -4.23 -0.0 23.3 -0.0 -4.59 -6.86 0.44 6.16 -2.1 -4.11 1.55 -0.45 -1.0 2.59 -0.63 -1.67 -1.08 -0.02 0.46 -1.09 -0.0 0.46 -19.75 3.29 8.05 28.48 -13.51 -7.09 36.16 -49.89 18.56 1.77 40.39 -17.2 -23.86 14.37 -63.73 5.31 -2.01 -3.87 -22.36 0.55 -66.58 -14.22 22.28 -4.73 12.24 33.5 29.51
20.07 93.98 34.81 -117.55 5.52 4.1 2.9 -11.91 -12.38 -0.0 27.44 0.0 -24.45 -16.19 7.7 10.18 -22.52 -5.06 0.0 24.56 -0.0 -4.6 -6.99 -0.81 7.56 -2.24 -4.46 1.9 -0.46 -1.08 3.17 -0.61 -1.8 -1.12 -0.01 0.46 -1.13 0.0 0.47 -20.46 3.61 8.03 27.78 -13.29 -6.71 38.28 -50.42 18.36 1.09 40.94 -17.41 -24.61 14.43 -63.36 6.06 -2.35 -3.57 -24.71 0.46 -66.63 -14.26 22.63 -4.74 12.55 33.84 29.81
19.34 93.89 35.33 -113.36 5.31 5.04 -0.88 -11.27 -13.43 -0.0 27.43 0.0 -24.7 -16.4 7.73 7.68 -22.27 -6.36 0.0 23.97 0.0 -4.87 -6.19 -0.89 6.51 -2.15 -5.16 1.64 -0.45 -1.26 2.74 -0.61 -2.1 -1.17 -0.01 0.47 -1.19 0.01 0.47 -21.44 3.94 8.1 29.87 -12.2 -7.06 37.1 -51.13 17.57 0.61 41.21 -17.51 -25.29 14.39 -63.12 5.45 -2.5 -3.24 -25.93 0.3 -66.59 -14.46 23.03 -4.85 12.87 34.03 30.0
18.47 93.77 36.06 -111.54 5.34 5.33 -2.03 -10.6 -14.23 0.0 26.94 -0.0 -25.37 -16.18 8.38 7.76 -22.33 -7.37 0.0 24.48 0.0 -5.52 -6.06 -0.92 5.42 -2.17 -5.25 1.37 -0.47 -1.29 2.29 -0.66 -2.15 -1.09 0.01 0.46 -1.1 0.03 0.46 -19.76 3.92 7.84 32.46 -11.05 -7.74 38.46 -52.26 16.74 -2.02 41.23 -19.33 -24.48 14.28 -62.39 6.53 -2.79 -3.34 -26.34 0.07 -66.5 -14.62 23.62 -5.07 13.2 33.98 30.48
17.9 93.71 36.58 -110.22 5.42 5.45 -3.0 -10.08 -14.69 -0.0 26.3 -0.0 -25.78 -15.9 8.93 7.96 -22.55 -8.16 0.0 25.09 0.0 -5.89 -6.05 -0.68 4.63 -2.24 -5.27 1.17 -0.5 -1.3 1.97 -0.72 -2.16 -1.03 0.03 0.45 -1.03 0.04 0.45 -18.56 3.87 7.69 34.22 -10.12 -8.25 39.55 -53.03 16.01 -0.58 41.48 -17.9 -26.37 14.18 -62.68 7.03 -2.94 -3.4 -26.28 -0.05 -66.42 -14.81 24.1 -5.28 13.42 33.59 30.85
17.38 93.63 37.04 -108.98 5.53 5.5 -3.84 -10.05 -14.95 -0.0 26.36 0.0 -25.54 -15.51 7.47 7.73 -22.83 -8.7 0.0 25.71 0.0 -6.45 -6.3 -0.23 3.89 -2.32 -5.25 0.99 -0.53 -1.3 1.66 -0.79 -2.16 -0.97 0.04 0.44 -0.97 0.05 0.44 -17.4 3.83 7.58 38.38 -7.33 -9.49 38.67 -55.12 14.22 -0.8 41.27 -18.01 -26.77 14.11 -62.56 10.78 -3.47 -3.93 -28.15 0.18 -66.24 -15.6 25.05 -5.67 13.57 34.23 30.68
16.75 93.58 37.58 -107.51 5.72 5.53 -4.79 -9.66 -15.31 -0.0 25.82 -0.0 -25.71 -15.02 7.31 7.53 -23.44 -9.34 -0.0 26.77 -0.0 -6.67 -6.17 -0.29 8.2 -2.34 -6.47 2.07 -0.47 -1.58 3.44 -0.57 -2.62 -1.3 -0.01 0.51 -1.31 0.01 0.52 -23.78 4.75 8.73 32.48 -5.97 -8.63 39.93 -56.57 12.4 -1.16 41.26 -18.21 -27.33 14.14 -62.18 3.42 -3.29 -2.46 -27.44 0.01 -66.12 -16.45 24.41 -5.59 14.2 34.65 31.29
16.34 93.55 37.9 -106.52 5.9 5.5 -5.56 -9.47 -15.46 0.0 25.46 0.0 -25.67 -14.67 7.12 7.17 -23.78 -9.63 0.0 27.27 0.0 -6.87 -6.18 -0.2 7.89 -2.43 -6.49 2.0 -0.49 -1.59 3.32 -0.62 -2.63 -1.27 -0.01 0.52 -1.29 0.01 0.52 -23.37 4.7 8.81 33.5 -5.21 -8.88 40.81 -57.02 11.32 -1.32 41.32 -18.29 -27.65 14.23 -61.84 5.32 -3.42 -2.8 -28.53 0.22 -65.94 -16.97 24.69 -5.79 14.35 34.64 31.48
15.88 93.54 38.29 -105.42 6.17 5.39 -6.23 -9.23 -15.55 0.0 24.94 0.0 -25.84 -14.1 6.92 6.91 -24.17 -9.89 -0.0 27.76 0.0 -7.47 -6.2 0.01 8.6 -2.35 -6.8 2.17 -0.46 -1.66 3.61 -0.55 -2.75 -1.33 -0.03 0.54 -1.35 -0.01 0.55 -24.47 4.71 9.34 32.85 -4.74 -8.98 41.72 -57.46 10.19 -1.51 41.17 -18.41 -27.84 14.24 -61.56 4.56 -3.54 -2.75 -28.3 0.36 -65.65 -17.65 25.22 -6.1 14.42 34.6 31.68
15.58 93.52 38.59 -104.72 6.39 5.28 -6.74 -9.17 -15.6 -0.0 24.62 -0.0 -25.79 -13.65 6.77 6.42 -24.44 -10.0 -0.0 27.97 -0.0 -7.62 -6.3 0.24 8.71 -2.32 -6.91 2.2 -0.46 -1.69 3.65 -0.53 -2.8 -1.34 -0.03 0.56 -1.35 -0.02 0.56 -24.63 4.68 9.6 32.83 -4.43 -9.18 41.68 -57.92 9.63 -0.86 41.4 -17.89 -27.97 14.3 -61.28 4.58 -3.54 -2.85 -28.44 0.42 -65.38 -17.8 25.39 -6.28 14.32 34.56 31.68
15.24 93.5 39.0 -103.98 6.71 5.14 -7.35 -9.25 -15.68 0.0 24.3 0.0 -25.67 -13.04 6.59 5.52 -25.04 -9.99 0.0 28.48 0.0 -7.93 -6.32 0.2 8.78 -2.26 -7.05 2.22 -0.44 -1.72 3.68 -0.5 -2.86 -1.34 -0.04 0.57 -1.36 -0.03 0.58 -24.72 4.6 9.91 32.87 -4.16 -9.56 43.03 -57.84 8.67 -2.25 40.75 -18.93 -27.58 14.59 -61.0 4.6 -3.58 -3.03 -27.69 0.78 -65.15 -18.39 26.46 -6.6 13.95 34.47 31.45
15.02 93.49 39.29 -103.63 6.95 5.02 -7.62 -9.36 -15.73 -0.0 24.12 -0.0 -25.66 -12.55 6.48 5.06 -25.36 -10.0 0.0 28.71 0.0 -8.06 -6.4 0.29 8.67 -2.34 -7.05 2.19 -0.46 -1.72 3.63 -0.53 -2.85 -1.33 -0.04 0.57 -1.34 -0.02 0.58 -24.42 4.72 9.91 33.11 -3.98 -9.82 43.15 -57.64 8.61 -1.87 40.84 -18.83 -27.95 14.44 -60.69 4.93 -3.35 -3.33 -27.53 1.04 -64.97 -18.4 26.89 -6.66 13.56 34.38 31.2
